<svg xmlns="http://www.w3.org/2000/svg" width="430" height="430" fill="none" viewBox="0 0 430 430"><g stroke="#fff" stroke-linecap="round" stroke-linejoin="round" stroke-miterlimit="10" stroke-width="12"><path d="M131.199 168.9c7.2-7.2 42.1 16.1 78 51.9s59.1 70.8 51.9 78"/><path d="M323.499 305.5c0-68.8-90.5-72.4-120.3-46.2m-32.299-26C198.2 185.7 168.4 64 75.1 83"/><path d="m129.901 172.4-72 190.6c-2.1 5.6 3.4 11.2 9 9l190.7-72"/><path d="M261.101 298.8c-7.2 7.2-42.1-16.1-78-51.9s-59.1-70.8-51.9-78M327.2 148.2c-9.7 10.9-28.1-5.5-37.8 5.4s8.6 27.3-1.1 38.2-28.1-5.5-37.8 5.4M245.9 68c.5 14.6-24.1 15.4-23.7 30 .5 14.6 25.1 13.8 25.6 28.4s-24.1 15.4-23.7 30m-45.799-86.2 7.3-12.2m135.5 295.7-15.3 9.3M366 293l7.2-12.2M57 231.4l10.1-10.1M338.199 83.8l-10-10.1M214 363l-5.1-13.2M84.8 135.4l10.8 9.3m254.3 67.8-3.9-13.7"/></g></svg>